<?xml version="1.0" encoding="UTF-8"?>
<svg id="image" xmlns="http://www.w3.org/2000/svg" width="33" height="33" viewBox="0 0 33 33">
  <defs>
    <style>
      .cls-1 {
        fill: #fff;
      }
    </style>
  </defs>
  <path class="cls-1" d="M16.5,33c-4.41,0-8.55-1.72-11.67-4.83C1.72,25.05,0,20.91,0,16.5S1.72,7.95,4.83,4.83C7.95,1.72,12.09,0,16.5,0s8.55,1.72,11.67,4.83c3.12,3.12,4.83,7.26,4.83,11.67s-1.72,8.55-4.83,11.67c-3.12,3.12-7.26,4.83-11.67,4.83Zm0-30.16c-7.53,0-13.66,6.13-13.66,13.66s6.13,13.66,13.66,13.66,13.66-6.13,13.66-13.66S24.03,2.84,16.5,2.84Z"/>
  <path class="cls-1" d="M14.31,23.12l-5.69-5.69c-.73-.73-.73-1.9,0-2.63,.73-.73,1.9-.73,2.63,0l3.06,3.06,7.44-7.44c.73-.73,1.9-.73,2.63,0,.73,.73,.73,1.9,0,2.63l-10.07,10.07Z"/>
</svg>